<?xml version="1.0" standalone="no"?><!DOCTYPE svg PUBLIC "-//W3C//DTD SVG 1.1//EN" "http://www.w3.org/Graphics/SVG/1.1/DTD/svg11.dtd"><svg t="1539666097182" class="icon" style="" viewBox="0 0 1024 1024" version="1.1" xmlns="http://www.w3.org/2000/svg" p-id="2687" xmlns:xlink="http://www.w3.org/1999/xlink" width="200" height="200"><defs><style type="text/css"></style></defs><path d="M355.2 496h115.2c19.2 0 22.4-16 22.4-35.2v-115.2c0-80-54.4-144-137.6-144-80 0-153.6 64-153.6 144s73.6 150.4 153.6 150.4z m208 0h115.2c80 0 144-67.2 144-150.4 0-80-60.8-147.2-144-147.2-80 0-144 64-144 147.2v115.2c0 19.2 12.8 35.2 28.8 35.2z m115.2 44.8h-115.2c-19.2 0-28.8 16-28.8 32V672c0 80 64 150.4 144 150.4s144-70.4 144-150.4c0-83.2-60.8-131.2-144-131.2z m-208 0h-115.2c-80 0-153.6 48-153.6 131.2s73.6 150.4 153.6 150.4 137.6-67.2 137.6-150.4v-99.2c0-19.2-3.2-32-22.4-32z" fill="#ACACAC" p-id="2688"></path></svg>