<?xml version="1.0" standalone="no"?><!DOCTYPE svg PUBLIC "-//W3C//DTD SVG 1.1//EN" "http://www.w3.org/Graphics/SVG/1.1/DTD/svg11.dtd"><svg t="1539666149475" class="icon" style="" viewBox="0 0 1024 1024" version="1.1" xmlns="http://www.w3.org/2000/svg" p-id="3450" xmlns:xlink="http://www.w3.org/1999/xlink" width="200" height="200"><defs><style type="text/css"></style></defs><path d="M524.8 310.4h201.6c9.6 0 16-6.4 16-19.2 0-9.6-6.4-19.2-16-19.2h-201.6c-9.6 0-16 6.4-16 19.2 0 9.6 6.4 19.2 16 19.2z m182.4 35.2h-220.8l-16-73.6c0-9.6-6.4-16-16-16H307.2C275.2 256 256 284.8 256 316.8v390.4c0 35.2 19.2 60.8 51.2 60.8h400c32 0 60.8-25.6 60.8-60.8v-300.8c0-35.2-28.8-60.8-60.8-60.8z" fill="#ACACAC" p-id="3451"></path></svg>