<?xml version="1.0" standalone="no"?><!DOCTYPE svg PUBLIC "-//W3C//DTD SVG 1.1//EN" "http://www.w3.org/Graphics/SVG/1.1/DTD/svg11.dtd"><svg t="1539666119501" class="icon" style="" viewBox="0 0 1024 1024" version="1.1" xmlns="http://www.w3.org/2000/svg" p-id="3014" xmlns:xlink="http://www.w3.org/1999/xlink" width="200" height="200"><defs><style type="text/css"></style></defs><path d="M768 332.8c0-25.6-19.2-44.8-41.6-44.8H297.6C272 288 256 310.4 256 332.8v358.4c0 25.6 19.2 44.8 41.6 44.8h425.6c25.6 0 41.6-22.4 41.6-44.8l3.2-358.4z m-112 313.6h-307.2c-12.8 0-19.2-16-12.8-25.6l92.8-172.8c3.2-6.4 12.8-6.4 16 0l54.4 102.4c3.2 6.4 12.8 6.4 16 0l44.8-70.4c6.4-6.4 16-6.4 19.2 0l83.2 144c12.8 12.8 6.4 22.4-6.4 22.4z m-25.6-201.6c-25.6 0-41.6-22.4-41.6-44.8s19.2-44.8 41.6-44.8c25.6 0 41.6 22.4 41.6 44.8s-19.2 44.8-41.6 44.8z" fill="#ACACAC" p-id="3015"></path></svg>