<?xml version="1.0" standalone="no"?><!DOCTYPE svg PUBLIC "-//W3C//DTD SVG 1.1//EN" "http://www.w3.org/Graphics/SVG/1.1/DTD/svg11.dtd"><svg t="1539666134218" class="icon" style="" viewBox="0 0 1024 1024" version="1.1" xmlns="http://www.w3.org/2000/svg" p-id="3232" xmlns:xlink="http://www.w3.org/1999/xlink" width="200" height="200"><defs><style type="text/css"></style></defs><path d="M473.6 204.8c-12.8-12.8-35.2-3.2-35.2 16-3.2 38.4-12.8 96-35.2 137.6-35.2 67.2-99.2 96-99.2 204.8 0 108.8 70.4 214.4 208 214.4s208-105.6 208-214.4c0-76.8-35.2-134.4-67.2-176-12.8-16-35.2-6.4-38.4 12.8-3.2 35.2-16 76.8-48 89.6-9.6 3.2-16-6.4-16-12.8 41.6-147.2-32-233.6-76.8-272z" fill="#ACACAC" p-id="3233"></path></svg>