<?xml version="1.0" standalone="no"?><!DOCTYPE svg PUBLIC "-//W3C//DTD SVG 1.1//EN" "http://www.w3.org/Graphics/SVG/1.1/DTD/svg11.dtd"><svg t="1539666169742" class="icon" style="" viewBox="0 0 1024 1024" version="1.1" xmlns="http://www.w3.org/2000/svg" p-id="3778" xmlns:xlink="http://www.w3.org/1999/xlink" width="200" height="200"><defs><style type="text/css"></style></defs><path d="M304 339.2c6.4-9.6 12.8-16 19.2-22.4 6.4-6.4 9.6-12.8 16-19.2l12.8-12.8c3.2-3.2 9.6-6.4 12.8-9.6 3.2-3.2 9.6-3.2 19.2-3.2h243.2c6.4 0 9.6 0 16 3.2s12.8 6.4 19.2 12.8c3.2 3.2 6.4 9.6 12.8 12.8 6.4 6.4 9.6 9.6 12.8 16 6.4 6.4 9.6 12.8 16 19.2H304z m457.6 166.4c0 12.8-3.2 22.4-12.8 28.8-6.4 9.6-19.2 12.8-35.2 12.8h-416c-12.8 0-25.6-3.2-35.2-12.8-9.6-9.6-12.8-19.2-12.8-28.8v-80c0-12.8 3.2-22.4 12.8-32 6.4-9.6 19.2-12.8 35.2-12.8h416c16 0 28.8 3.2 35.2 12.8 6.4 9.6 9.6 19.2 9.6 32v80z m-214.4-41.6c0-6.4 0-9.6-3.2-9.6-3.2-3.2-6.4-3.2-9.6-3.2h-57.6c-3.2 0-6.4 0-9.6 3.2-3.2 3.2-3.2 6.4-3.2 9.6 0 6.4 3.2 9.6 3.2 9.6 3.2 3.2 6.4 3.2 9.6 3.2h57.6c9.6 3.2 12.8-3.2 12.8-12.8z m211.2 246.4c0 12.8-3.2 22.4-12.8 32-9.6 9.6-22.4 12.8-35.2 12.8H297.6c-12.8 0-22.4-3.2-32-12.8-9.6-9.6-16-19.2-16-35.2v-73.6c0-12.8 3.2-22.4 12.8-32 6.4-9.6 19.2-12.8 38.4-12.8h416c16 0 28.8 3.2 35.2 12.8 6.4 9.6 12.8 19.2 12.8 32v76.8z m-211.2-41.6c0-3.2 0-6.4-3.2-9.6-3.2-3.2-6.4-3.2-9.6-3.2h-57.6c-3.2 0-6.4 0-9.6 3.2-3.2 3.2-3.2 6.4-3.2 9.6 0 3.2 0 6.4 3.2 9.6 3.2 3.2 6.4 3.2 9.6 3.2h57.6c3.2 0 6.4 0 9.6-3.2 0-3.2 3.2-6.4 3.2-9.6z" fill="#ACACAC" p-id="3779"></path></svg>