<?xml version="1.0" standalone="no"?><!DOCTYPE svg PUBLIC "-//W3C//DTD SVG 1.1//EN" "http://www.w3.org/Graphics/SVG/1.1/DTD/svg11.dtd"><svg t="1539666176123" class="icon" style="" viewBox="0 0 1024 1024" version="1.1" xmlns="http://www.w3.org/2000/svg" p-id="3887" xmlns:xlink="http://www.w3.org/1999/xlink" width="200" height="200"><defs><style type="text/css"></style></defs><path d="M752 752c0 9.6 0 16-3.2 25.6-3.2 6.4-6.4 12.8-12.8 19.2s-12.8 9.6-19.2 12.8c-6.4 3.2-16 6.4-25.6 6.4h-352c-9.6 0-16-3.2-25.6-6.4-6.4-3.2-16-6.4-22.4-12.8-6.4-6.4-9.6-12.8-16-19.2-3.2-6.4-6.4-16-6.4-25.6V406.4c0-16 6.4-32 19.2-44.8 12.8-12.8 28.8-19.2 44.8-19.2h352c19.2 0 32 6.4 44.8 19.2 12.8 12.8 19.2 25.6 19.2 44.8v92.8h-160c-19.2 0-32 6.4-44.8 19.2-12.8 12.8-19.2 25.6-19.2 44.8 0 12.8 3.2 22.4 6.4 32 3.2 6.4 9.6 16 19.2 22.4 9.6 6.4 22.4 9.6 38.4 9.6h160v124.8z m-96-441.6h-320c25.6-12.8 48-25.6 70.4-38.4 19.2-9.6 38.4-19.2 57.6-32 19.2-9.6 35.2-19.2 44.8-22.4 16-9.6 32-12.8 44.8-12.8 12.8 0 22.4 3.2 32 6.4 9.6 6.4 19.2 12.8 25.6 19.2l44.8 80z m-96 252.8c0-9.6 3.2-16 9.6-22.4 6.4-6.4 12.8-9.6 22.4-9.6 9.6 0 16 3.2 22.4 9.6 6.4 6.4 9.6 12.8 9.6 22.4 0 9.6-3.2 16-9.6 22.4-6.4 6.4-12.8 9.6-22.4 9.6-9.6 0-16-3.2-22.4-9.6-6.4-6.4-9.6-12.8-9.6-22.4z m0 0" fill="#ACACAC" p-id="3888"></path></svg>