<?xml version="1.0" standalone="no"?><!DOCTYPE svg PUBLIC "-//W3C//DTD SVG 1.1//EN" "http://www.w3.org/Graphics/SVG/1.1/DTD/svg11.dtd"><svg t="1539666112614" class="icon" style="" viewBox="0 0 1024 1024" version="1.1" xmlns="http://www.w3.org/2000/svg" p-id="2905" xmlns:xlink="http://www.w3.org/1999/xlink" width="200" height="200"><defs><style type="text/css"></style></defs><path d="M505.6 262.4c-150.4 0-272 108.8-272 243.2 0 195.2 169.6 220.8 272 300.8 108.8-96 272-102.4 272-300.8 0-134.4-121.6-243.2-272-243.2z m-128 307.2c-32 0-54.4-25.6-54.4-57.6s25.6-57.6 54.4-57.6c32 0 54.4 25.6 54.4 57.6s-22.4 57.6-54.4 57.6z m137.6 0c-32 0-54.4-25.6-54.4-57.6s25.6-57.6 54.4-57.6c32 0 54.4 25.6 54.4 57.6s-22.4 57.6-54.4 57.6z m131.2 0c-32 0-54.4-25.6-54.4-57.6s25.6-57.6 54.4-57.6c32 0 54.4 25.6 54.4 57.6s-22.4 57.6-54.4 57.6z" fill="#ACACAC" p-id="2906"></path></svg>