<?xml version="1.0" standalone="no"?><!DOCTYPE svg PUBLIC "-//W3C//DTD SVG 1.1//EN" "http://www.w3.org/Graphics/SVG/1.1/DTD/svg11.dtd"><svg t="1539666103902" class="icon" style="" viewBox="0 0 1024 1024" version="1.1" xmlns="http://www.w3.org/2000/svg" p-id="2796" xmlns:xlink="http://www.w3.org/1999/xlink" width="200" height="200"><defs><style type="text/css"></style></defs><path d="M684.8 694.4H339.2c-12.8 0-22.4 9.6-22.4 22.4s9.6 22.4 22.4 22.4h342.4c12.8 0 22.4-9.6 22.4-22.4s-9.6-22.4-19.2-22.4zM672 288H348.8C297.6 288 256 329.6 256 380.8v176C256 608 300.8 640 352 640h320c51.2 0 96-32 96-83.2v-176c0-51.2-41.6-92.8-96-92.8z m-48 256h-224c-9.6 0-16-6.4-16-16s6.4-16 16-16h224c9.6 0 16 6.4 16 16s-6.4 16-16 16z m0-96h-224c-9.6 0-16-6.4-16-16s6.4-16 16-16h224c9.6 0 16 6.4 16 16s-6.4 16-16 16z" fill="#ACACAC" p-id="2797"></path></svg>