<?xml version="1.0" standalone="no"?><!DOCTYPE svg PUBLIC "-//W3C//DTD SVG 1.1//EN" "http://www.w3.org/Graphics/SVG/1.1/DTD/svg11.dtd"><svg t="1539666142398" class="icon" style="" viewBox="0 0 1024 1024" version="1.1" xmlns="http://www.w3.org/2000/svg" p-id="3341" xmlns:xlink="http://www.w3.org/1999/xlink" width="200" height="200"><defs><style type="text/css"></style></defs><path d="M630.4 256h-240C316.8 256 256 316.8 256 393.6v240c0 73.6 60.8 137.6 137.6 137.6h240c73.6 0 137.6-60.8 137.6-137.6v-240C768 316.8 707.2 256 630.4 256z m-89.6 396.8h-144c-16 0-28.8-12.8-28.8-28.8s12.8-28.8 28.8-28.8h144c16 0 28.8 12.8 28.8 28.8 0 19.2-12.8 28.8-28.8 28.8z m83.2-112h-227.2c-12.8 0-28.8-12.8-28.8-28.8s12.8-28.8 28.8-28.8h227.2c12.8 0 28.8 12.8 28.8 28.8 3.2 12.8-9.6 28.8-28.8 28.8z m0-115.2h-227.2c-12.8 0-28.8-12.8-28.8-28.8s12.8-28.8 28.8-28.8h227.2c12.8 0 28.8 12.8 28.8 28.8 3.2 16-9.6 28.8-28.8 28.8z" fill="#ACACAC" p-id="3342"></path></svg>