<?xml version="1.0" standalone="no"?><!DOCTYPE svg PUBLIC "-//W3C//DTD SVG 1.1//EN" "http://www.w3.org/Graphics/SVG/1.1/DTD/svg11.dtd"><svg t="1539666023636" class="icon" style="" viewBox="0 0 1024 1024" version="1.1" xmlns="http://www.w3.org/2000/svg" p-id="2015" xmlns:xlink="http://www.w3.org/1999/xlink" width="200" height="200"><defs><style type="text/css"></style></defs><path d="M304.64 448.64l77.44 0c0 0.64 0 0.64 0 1.28L382.08 768c0 35.2 28.8 64 63.99999999 64L576.00000001 832C611.19999999 832 640 803.2 640 768l0-318.08c0-0.64 0-0.64 0-1.28L718.08 448.64c44.16 0 65.92-44.8 35.2-70.4l-206.72-173.44c-19.2-16-50.56-16-69.76 0l-206.72 173.44C238.72 403.84 260.48 448.64 304.64 448.64z" p-id="2016"></path></svg>